<svg width="35" height="40" viewBox="0 0 35 40" fill="none" xmlns="http://www.w3.org/2000/svg">
<path fill-rule="evenodd" clip-rule="evenodd" d="M35 11.25V35C35 36.3261 34.4732 37.5979 33.5355 38.5355C32.5979 39.4732 31.3261 40 30 40H27.5V37.5H30C30.663 37.5 31.2989 37.2366 31.7678 36.7678C32.2366 36.2989 32.5 35.663 32.5 35V11.25H27.5C26.5054 11.25 25.5516 10.8549 24.8483 10.1517C24.1451 9.44839 23.75 8.49456 23.75 7.5V2.5H10C9.33696 2.5 8.70107 2.76339 8.23223 3.23223C7.76339 3.70107 7.5 4.33696 7.5 5V27.5H5V5C5 3.67392 5.52678 2.40215 6.46447 1.46447C7.40215 0.526784 8.67392 0 10 0L23.75 0L35 11.25ZM4 29.625H0V39.6225H1.9775V36.2675H3.985C4.70167 36.2675 5.31167 36.1233 5.815 35.835C6.32333 35.5433 6.70917 35.1483 6.9725 34.65C7.24697 34.1287 7.38542 33.5465 7.375 32.9575C7.375 32.3325 7.24333 31.7683 6.98 31.265C6.7162 30.7674 6.31766 30.3542 5.83 30.0725C5.33 29.7725 4.72 29.6233 4 29.625ZM5.3625 32.9575C5.37099 33.2868 5.298 33.6132 5.15 33.9075C5.0173 34.164 4.8098 34.3741 4.555 34.51C4.26377 34.6534 3.94201 34.7238 3.6175 34.715H1.97V31.2H3.62C4.165 31.2 4.59167 31.3508 4.9 31.6525C5.20833 31.9575 5.3625 32.3925 5.3625 32.9575ZM8.405 29.625V39.6225H12.055C13.0583 39.6225 13.89 39.425 14.55 39.03C15.2179 38.6304 15.7394 38.0265 16.0375 37.3075C16.3642 36.5575 16.5275 35.6542 16.5275 34.5975C16.5275 33.5475 16.3642 32.6517 16.0375 31.91C15.7423 31.1997 15.2259 30.6035 14.565 30.21C13.905 29.82 13.0675 29.625 12.0525 29.625H8.405ZM10.3825 31.2375H11.79C12.4083 31.2375 12.9158 31.3642 13.3125 31.6175C13.7238 31.8887 14.0347 32.2875 14.1975 32.7525C14.3942 33.2558 14.4925 33.8833 14.4925 34.635C14.5003 35.1336 14.4431 35.6311 14.3225 36.115C14.2363 36.4976 14.0692 36.8573 13.8325 37.17C13.615 37.4504 13.3268 37.6678 12.9975 37.8C12.6116 37.9442 12.2019 38.0138 11.79 38.005H10.3825V31.2375ZM19.74 35.645V39.6225H17.765V29.625H24.135V31.2575H19.74V34.05H23.755V35.645H19.74Z" fill="white"/>
</svg>
